<?xml version="1.0" standalone="no"?>
<!DOCTYPE svg PUBLIC "-//W3C//DTD SVG 20010904//EN"
 "http://www.w3.org/TR/2001/REC-SVG-20010904/DTD/svg10.dtd">
<svg version="1.0" xmlns="http://www.w3.org/2000/svg"
 width="512.000000pt" height="512.000000pt" viewBox="0 0 512.000000 512.000000"
 preserveAspectRatio="xMidYMid meet">
<metadata>
Created by Camel Space
</metadata>
<g transform="translate(0.000000,512.000000) scale(0.100000,-0.100000)"
fill="#000000" stroke="none">
<path d="M1600 4000 c-150 -30 -250 -100 -300 -200 -30 -60 -30 -140 0 -200 
30 -60 80 -110 140 -140 l80 -30 c80 -30 160 -30 240 0 l120 30 c240 0 480 
-120 720 -240 l320 -160 c120 -60 240 -60 360 0 l240 120 c120 60 240 180 
300 300 l60 120 c0 120 -60 240 -180 300 l-120 60 c-60 60 -180 60 -240 0 
l-60 -60 c-60 -60 -60 -120 0 -180 l60 -60 c60 -60 120 -60 180 0 l60 60 
c60 60 60 120 0 180 l-60 60 c-60 60 -120 60 -180 0 l-60 -60 c-60 -60 -60 
-120 0 -180 l60 -60 c60 -60 120 -60 180 0 l60 60 c60 60 60 120 0 180 z"/>
<path d="M2800 3200 c-100 -50 -200 -150 -250 -250 -30 -60 -30 -140 0 -200 
30 -60 80 -110 140 -140 l80 -30 c80 -30 160 -30 240 0 l120 30 c120 30 240 
120 300 240 l60 120 c0 120 -60 240 -180 300 l-120 60 c-60 60 -180 60 -240 
0 l-60 -60 c-60 -60 -60 -120 0 -180 l60 -60 c60 -60 120 -60 180 0 z"/>
<path d="M1200 2400 c-80 -40 -160 -120 -200 -200 -20 -40 -20 -80 0 -120 
20 -40 60 -80 120 -120 l80 -40 c80 -40 160 -40 240 0 l120 40 c120 40 240 
120 300 240 l60 120 c0 120 -60 240 -180 300 l-120 60 c-60 60 -180 60 -240 
0 l-60 -60 c-60 -60 -60 -120 0 -180 z"/>
<path d="M3600 2400 c-80 -40 -160 -120 -200 -200 -20 -40 -20 -80 0 -120 
20 -40 60 -80 120 -120 l80 -40 c80 -40 160 -40 240 0 l120 40 c120 40 240 
120 300 240 l60 120 c0 120 -60 240 -180 300 l-120 60 c-60 60 -180 60 -240 
0 l-60 -60 c-60 -60 -60 -120 0 -180 z"/>
</g>
</svg>
